<?xml version="1.0" encoding="UTF-8" standalone="no"?>
<!-- Generator: Adobe Illustrator 27.3.1, SVG Export Plug-In . SVG Version: 6.00 Build 0)  -->

<svg
   version="1.1"
   id="Layer_1"
   x="0px"
   y="0px"
   viewBox="0 0 700.00001 110.09583"
   xml:space="preserve"
   sodipodi:docname="Final logo svg blue version.svg"
   width="700"
   height="110.09583"
   xmlns:inkscape="http://www.inkscape.org/namespaces/inkscape"
   xmlns:sodipodi="http://sodipodi.sourceforge.net/DTD/sodipodi-0.dtd"
   xmlns="http://www.w3.org/2000/svg"
   xmlns:svg="http://www.w3.org/2000/svg"><defs
   id="defs23" /><sodipodi:namedview
   id="namedview23"
   pagecolor="#ffffff"
   bordercolor="#000000"
   borderopacity="0.25"
   inkscape:showpageshadow="2"
   inkscape:pageopacity="0.0"
   inkscape:pagecheckerboard="0"
   inkscape:deskcolor="#d1d1d1"><inkscape:page
     x="5.4105988e-07"
     y="8.9042743e-07"
     width="700"
     height="110.09583"
     id="page1"
     margin="0"
     bleed="0" /></sodipodi:namedview>
<style
   type="text/css"
   id="style1">
	.st0{fill:#35B8DB;}
</style>































<g
   id="g25"
   transform="matrix(0.93756992,0,0,0.93756992,-6.3218114,-159.08766)"><g
     id="g23"
     transform="matrix(0.64930957,0,0,0.64930957,446.83905,104.42324)"><path
       class="st0"
       d="m 413.7,166.2 h -77.3 c -6.8,0 -12.3,5.1 -12.3,11.4 v 47.8 c 0,6.3 5.5,11.4 12.3,11.4 h 77.3 c 6.8,0 12.3,-5.1 12.3,-11.4 v -47.8 c -0.1,-6.3 -5.6,-11.4 -12.3,-11.4 m 4.3,55.2 c 0,4.7 -3.6,8.5 -8.1,8.5 h -3.8 -62.2 -4.7 c -4.5,0 -8.1,-3.8 -8.1,-8.5 v -16.1 c 0.9,-0.9 2,-1.6 3.5,-1.3 0.4,0.1 0.8,0.3 1.2,0.5 0.2,0.1 0.3,0.2 0.4,0.2 2.3,1.1 5.1,1.5 7.7,1 3.6,-0.7 5.1,-3.4 6.4,-5.7 0.9,-1.6 1.6,-2.9 2.9,-3.6 0.9,1.1 0.6,4.1 0.4,5.9 -0.1,0.5 -0.1,1 -0.1,1.3 -0.1,1.9 -0.1,4.7 1,6.9 l 0.7,1.2 c 0.4,0.6 0.8,0.8 1.5,1.2 0.5,0.3 0.8,0.3 1.6,0.5 1.4,0.2 2.3,-0.1 3.2,-0.5 4.3,-1.8 4.5,-7.3 4.6,-10.6 0,-0.4 0,-0.8 0,-1.1 0.1,-0.6 0,-1.6 0,-3.2 -0.1,-1.7 -0.2,-3.7 0,-5 0,-0.2 0.1,-0.6 0.1,-1.1 0.1,-1.1 0.3,-4.3 0.6,-5.4 0,0.1 0,0.2 0.1,0.3 v 0.2 c 0.1,0.3 0.1,0.6 0.2,1 0,0.3 0.1,0.6 0.1,0.8 0.1,0.7 0.2,1.4 0.2,2.1 0,0.5 0.1,1.1 0.1,1.6 0.3,2.5 0.5,5.1 0.4,7.3 0,0.6 -0.1,1.3 -0.1,2.2 -0.2,4.3 -0.5,10.7 0.5,13.5 0.1,0.4 0.5,1.3 0.8,1.7 0.6,0.9 1.9,1.8 3.4,2 0.1,0 0.3,0 0.4,0 1.1,0 2,-0.4 2.8,-1.2 3,-3 2.6,-15 2.6,-15.1 -0.1,-1.6 0,-3.2 0.1,-4.8 0,-1 0.1,-2 0.1,-3 0.2,-0.4 0.3,-1 0.5,-2 0.1,-0.6 0.2,-1.4 0.4,-1.9 0.2,0.5 0.3,1.3 0.4,2.6 0,0.4 0.1,0.8 0.1,1 v 0.3 c 0.1,0.7 0.1,1.5 0.2,2.4 0,0.6 0,1.3 0,2.1 0,6.8 0.2,13.5 3.6,15.3 2.6,1.3 5.3,-0.5 6.2,-1.8 1.5,-2.1 2.1,-5.7 2.7,-8.9 0,-0.2 0.1,-0.3 0.1,-0.5 v 0.3 c 0,0.8 0.1,1.8 0.9,2.5 0.6,0.6 1.6,0.8 2.9,0.6 2.1,-0.2 3.4,-1.6 4.5,-2.7 0.7,-0.7 1.3,-1.4 2,-1.7 0,0 0.1,0.1 0.1,0.1 l 0.3,0.6 0.1,0.1 c 0.1,0.1 0.1,0.1 0.2,0.2 0.1,0.2 0.3,0.3 0.5,0.5 l 0.1,0.2 c 0.1,0.1 0.1,0.1 0.2,0.2 0.1,0.1 0.1,0.1 0.2,0.2 0.1,0.1 0.1,0.1 0.2,0.1 0.1,0.1 0.3,0.2 0.6,0.2 h 0.1 c 0,0 0.1,0 0.1,0.1 0.2,0.1 0.3,0.1 0.5,0.1 0,0 0.1,0 0.1,0 l 1.7,0.2 1.3,-0.1 c 0.9,0 1.4,-0.1 2.1,-0.1 1.1,-0.1 2.5,-0.2 5.9,-0.2 0.2,0 0.4,0 0.6,0 v 16.3 z m -20.7,-20.1 1,0.7 c -0.1,0.1 -0.2,0.2 -0.3,0.3 -0.3,0.2 -0.5,0.5 -0.8,0.7 0,-0.1 0,-0.3 0,-0.4 0,-0.3 0.1,-0.7 0.1,-1 0,-0.2 0,-0.3 0,-0.3 m 20.7,0.6 c -0.6,0 -1.3,0 -2,0 -0.6,0 -1.2,0 -1.6,0 -2.9,0 -4.5,0.2 -5.5,0.3 -1.2,0.1 -1.2,0.1 -1.8,-0.8 -0.9,-1.3 -2,-2 -3.2,-2.2 -2,-0.2 -3.8,1.1 -5.3,2.4 l -1.3,-2.3 c -0.1,-0.1 -0.1,-0.2 -0.1,-0.2 0,0 0,0 0,0 0,-0.1 0,-0.2 0,-0.3 v -0.1 -0.1 c -0.6,-1.6 -1.7,-2.2 -2.5,-2.5 -1.4,-0.4 -2.9,0 -3.7,0.6 -1.5,1.1 -2.1,4.4 -2.7,7.7 -0.2,1.4 -0.5,2.7 -0.8,3.6 0,0.1 -0.1,0.3 -0.1,0.5 -0.5,1.8 -1,2.9 -1.4,3.4 -1.3,-1.9 -1.4,-11.3 -1.4,-14.6 0,-1 0,-1.8 0,-2.3 v -0.2 -0.1 c -0.1,-0.5 -0.2,-0.9 -0.3,-1.4 -0.2,-1.1 -0.3,-2.2 -0.8,-3.3 -0.9,-1.9 -3,-3.3 -5.6,-2.2 -3.7,1.6 -3.7,8.2 -3.7,15.2 0,4.6 0,9.4 -1.2,12.1 -0.3,-0.7 -0.6,-2 -0.7,-4.8 V 210 c -0.1,-2 0,-4.1 0,-6.1 l 0.1,-2.8 c 0.1,-4.3 0.2,-8.7 -0.8,-12.8 -0.1,-0.3 -0.2,-0.7 -0.2,-1.1 -0.4,-1.9 -0.8,-4.2 -3.6,-4.8 -1.1,-0.2 -2.1,0 -2.9,0.6 -2.7,2.2 -2.9,8.9 -2.9,11.7 0,0.6 0,1.3 0.1,2 0.1,1.8 0.2,4 -0.2,5.2 v 0.2 0.2 c 0.4,2 -0.7,7 -2.5,7.8 -1.4,-0.7 -1.2,-4 -1.1,-7.2 0.2,-4.2 0.4,-8.6 -2.8,-9.7 -2.3,-0.8 -5.7,-0.6 -8.6,4.6 l -0.1,0.2 c -0.2,0.3 -0.4,0.7 -0.6,1.1 -0.3,0.5 -0.5,0.9 -0.8,1.3 -1.2,1.6 -2.3,2.8 -5.5,1.8 -0.4,-0.1 -0.9,-0.3 -1.4,-0.5 -1.9,-0.7 -4.5,-1.7 -6.9,-0.9 -0.1,0 -0.2,0.1 -0.3,0.1 v -19.5 c 0,-4.7 3.6,-8.5 8.1,-8.5 h 4.7 62.2 3.8 c 4.5,0 8.1,3.8 8.1,8.5 v 20.5 z"
       id="path1" /><path
       class="st0"
       d="m 468.4,240.7 c -0.9,-1.4 -1.8,-2.8 -2.3,-4 l -0.2,-0.4 c -0.3,-0.6 -0.6,-1.1 -0.9,-1.7 l -0.1,-0.2 c -1.1,-2 -3.2,-6.1 -4.3,-10.7 l -0.1,-0.3 c -3.1,-9.7 -4.1,-19.6 -3.2,-29.4 0.5,-5.3 1.6,-10.6 3.3,-15.7 l 0.1,-0.3 c 1.2,-4.7 3.4,-8.8 4.6,-10.8 l 0.1,-0.2 c 0.3,-0.6 0.6,-1.1 0.9,-1.6 l 0.1,-0.2 c 0.5,-1.1 1.3,-2.3 2,-3.4 2.2,-3.5 6.9,-10.7 0.2,-15.6 -3.8,-2.7 -8.2,-2 -13.4,-1.2 -6.6,1.1 -15.5,2.5 -28.3,-1.5 -2.7,-0.8 -5.5,-1.6 -8.5,-2.4 h 1.3 l 9.8,-15.4 c 5.1,1.2 10.6,-0.9 13.6,-5.6 3.8,-5.9 2,-13.8 -3.9,-17.6 -5.9,-3.8 -13.8,-2 -17.6,3.9 -3,4.7 -2.5,10.5 0.7,14.7 l -11.6,18.3 c -23,-4.5 -47.2,-4.6 -70.3,-0.2 l -11.5,-18.1 c 3.2,-4.1 3.7,-10 0.7,-14.7 -3.8,-5.9 -11.7,-7.7 -17.6,-3.9 -5.9,3.8 -7.7,11.7 -3.9,17.6 3,4.7 8.5,6.7 13.6,5.6 l 9.8,15.4 h 0.2 c -3,0.7 -5.8,1.5 -8.5,2.4 -12.7,4 -21.7,2.5 -28.3,1.5 -5.2,-0.8 -9.6,-1.6 -13.4,1.2 -6.7,4.9 -2.1,12.1 0.2,15.6 0.8,1.3 1.7,2.6 2.2,3.7 l 0.2,0.4 0.2,0.3 c 0,0.1 3.4,5.2 5.1,11.6 l 0.1,0.3 c 2.9,8.6 4.2,17.5 3.8,26.5 -0.3,8.1 -2.1,16.1 -5.1,23.8 -0.4,1 -0.8,1.9 -1.3,3 -1.2,2.6 -2.5,5.2 -3.9,7.6 l -0.3,0.5 c -0.6,0.9 -1.1,1.8 -1.7,2.7 l -0.1,0.1 c -3.9,6.3 -3.7,11.1 0.6,14.3 3.8,2.7 8.2,2 13.4,1.2 6.6,-1.1 15.5,-2.5 28.3,1.5 4.3,1.4 9.1,2.6 14.1,3.6 12.4,2.6 25,3.9 37.8,3.9 12.7,0 25.4,-1.3 37.8,-3.9 5.1,-1.1 9.8,-2.3 14.1,-3.6 12.7,-4 21.7,-2.5 28.3,-1.5 5.2,0.8 9.6,1.6 13.4,-1.2 6.5,-5.2 1.9,-12.5 -0.3,-15.9 m -11.6,6.5 c -7.2,-1.2 -18,-2.9 -33.1,1.8 -4,1.3 -8.4,2.4 -13.1,3.4 -23.3,4.9 -47.9,4.9 -71.3,0 -4.7,-1 -9.2,-2.1 -13.1,-3.4 -7.6,-2.4 -14,-3.1 -19.5,-3.1 -5.5,0 -9.9,0.7 -13.5,1.3 -1.2,0.2 -2.6,0.4 -3.8,0.6 0.1,-0.1 0.1,-0.2 0.2,-0.3 0.6,-1 1.3,-2 1.9,-3 0.1,-0.2 0.3,-0.4 0.4,-0.6 1.6,-2.8 3.1,-5.7 4.4,-8.6 0.5,-1.2 1.1,-2.4 1.5,-3.5 3.5,-8.7 5.4,-17.9 5.8,-27.1 0.4,-10.2 -1,-20.3 -4.3,-30.1 -1.9,-6.9 -5.3,-12.6 -6.2,-14 -0.8,-1.7 -1.8,-3.3 -2.7,-4.7 -0.3,-0.4 -0.6,-1 -0.9,-1.5 1.1,0.1 2.5,0.4 3.8,0.6 7.2,1.2 18,2.9 33.1,-1.8 4,-1.2 8.4,-2.4 13.1,-3.4 23.3,-4.9 47.9,-4.9 71.3,0 4.7,1 9.2,2.1 13.1,3.4 15.1,4.7 25.9,3 33.1,1.8 1.2,-0.2 2.6,-0.4 3.8,-0.6 -0.3,0.5 -0.7,1.1 -0.9,1.5 -0.8,1.3 -1.8,2.8 -2.6,4.4 -0.3,0.5 -0.6,1.1 -0.9,1.6 -1.4,2.5 -4,7.4 -5.5,13.2 -1.9,5.8 -3.2,11.8 -3.7,17.8 -1.1,11.2 0.1,22.4 3.6,33.4 1.3,5.3 3.6,10 5.2,13 0.3,0.6 0.6,1.1 0.8,1.6 0.8,2 2,3.8 3.1,5.5 0.3,0.4 0.6,1 1,1.5 -1.4,-0.3 -2.8,-0.5 -4.1,-0.7"
       id="path2" /></g><g
     id="g24"
     transform="matrix(1.2883831,0,0,1.2883831,-176.46533,-189.33643)"><path
       class="st0"
       d="M 280.6,354.1 H 275 v 15.6 h 2.5 v -6.5 h 3.1 c 3.1,0 5.5,-2.1 5.5,-4.8 0,-2.6 -2.2,-4.3 -5.5,-4.3 m -0.1,7 h -2.9 v -4.8 h 2.9 c 1.8,0 2.9,0.9 2.9,2.4 0,1.4 -1,2.4 -2.9,2.4"
       id="path3" /><path
       class="st0"
       d="m 304.2,357.8 c 0,-2.3 -2.2,-3.8 -5.5,-3.8 h -5.6 v 15.6 h 2.5 v -7.9 h 1.6 l 4.7,7.9 h 2.8 l -4.8,-8 c 2.5,-0.2 4.3,-1.7 4.3,-3.8 m -8.6,2 v -3.5 h 2.9 c 1.8,0 2.9,0.7 2.9,1.8 0,1 -1,1.7 -2.9,1.7 z"
       id="path4" /><path
       class="st0"
       d="m 319.3,353.9 c -4.6,0 -8.3,3.1 -8.3,7.9 0,4.8 3.7,7.9 8.3,7.9 4.7,0 8.4,-3.1 8.4,-7.9 -0.1,-4.8 -3.7,-7.9 -8.4,-7.9 m 0,13.6 c -3.5,0 -5.7,-2.2 -5.7,-5.7 0,-3.5 2.2,-5.7 5.7,-5.7 3.5,0 5.7,2.2 5.7,5.7 0,3.6 -2.2,5.7 -5.7,5.7"
       id="path5" /><path
       class="st0"
       d="m 340.7,354.1 h -6.1 v 15.6 h 6.1 c 4.6,0 7.6,-3.1 7.6,-7.8 0,-4.7 -3,-7.8 -7.6,-7.8 m 0,13.4 h -3.6 v -11.2 h 3.6 c 3,0 4.8,2.1 4.8,5.6 0.1,3.5 -1.8,5.6 -4.8,5.6"
       id="path6" /><path
       class="st0"
       d="m 365.3,363.1 c 0,2.3 -1.3,4.3 -3.8,4.3 -2.5,0 -3.8,-2 -3.8,-4.4 v -9 h -2.5 v 9 c 0,3.8 2.5,6.8 6.3,6.8 3.8,0 6.2,-2.9 6.2,-6.6 V 354 h -2.5 v 9.1 z"
       id="path7" /><path
       class="st0"
       d="m 382.9,356.3 c 2.3,0 3.9,1 5.1,3.1 l 1.7,-2 c -1.4,-2.2 -3.9,-3.5 -6.9,-3.5 -4.7,0 -8.1,3.1 -8.1,7.9 0,4.8 3.3,8 8.1,8 3,0 5.5,-1.3 6.9,-3.5 l -1.7,-2 c -1.2,2.1 -2.8,3.1 -5,3.1 -3.5,0 -5.5,-2.3 -5.5,-5.6 -0.1,-3.2 1.9,-5.5 5.4,-5.5"
       id="path8" /><polygon
       class="st0"
       points="400.8,369.7 403.4,369.7 403.4,356.3 408.2,356.3 408.2,354.1 396,354.1 396,356.3 400.8,356.3 "
       id="polygon8" /><rect
       x="415"
       y="354"
       class="st0"
       width="2.5"
       height="15.7"
       id="rect8" /><path
       class="st0"
       d="m 432.7,353.9 c -4.6,0 -8.3,3.1 -8.3,7.9 0,4.8 3.7,7.9 8.3,7.9 4.7,0 8.4,-3.1 8.4,-7.9 0,-4.8 -3.7,-7.9 -8.4,-7.9 m 0,13.6 c -3.5,0 -5.7,-2.2 -5.7,-5.7 0,-3.5 2.2,-5.7 5.7,-5.7 3.5,0 5.7,2.2 5.7,5.7 0,3.6 -2.2,5.7 -5.7,5.7"
       id="path9" /><polygon
       class="st0"
       points="448,354 448,369.7 450.5,369.7 450.5,358 457.7,369.7 460.3,369.7 460.3,354 457.8,354 457.8,365.6 450.7,354 "
       id="polygon9" /><path
       class="st0"
       d="m 475.5,361 -2,-0.9 c -1.5,-0.7 -2.5,-1.4 -2.5,-2.2 0,-0.8 0.9,-1.4 2.3,-1.4 1.5,0 2.9,0.6 3.7,1.6 l 1.9,-2 c -1.1,-1.1 -2.9,-2 -5.1,-2 -3.2,0 -5.4,1.9 -5.4,4.2 0,1.8 1.2,3 3.8,4.1 l 1.2,0.5 c 2.1,0.9 3.1,1.7 3.1,2.7 0,1 -1,1.8 -2.6,1.8 -2,0 -4.1,-1.4 -4.6,-3.1 l -1.7,2.2 c 0.8,2 3.3,3.3 6.2,3.3 3.3,0 5.3,-1.7 5.3,-4.3 0.1,-2 -1,-3.4 -3.6,-4.5"
       id="path10" /><polygon
       class="st0"
       points="607.3,363.2 498.2,359.5 498.2,366.2 607.3,364.3 "
       id="polygon10" /><polygon
       class="st0"
       points="256.1,359.5 145,363.2 145,364.3 256.1,366.2 "
       id="polygon11" /><polygon
       class="st0"
       points="161.3,306 173.5,306 173.5,299.8 142.2,299.8 142.2,306 154.5,306 154.5,340.2 161.3,340.2 "
       id="polygon12" /><path
       class="st0"
       d="m 190.5,340.6 c 4.6,0 8.5,-1.5 11.6,-4.6 3.1,-3.1 4.6,-6.8 4.6,-11.2 0,-4.4 -1.5,-8.2 -4.6,-11.2 -3.1,-3.1 -6.9,-4.6 -11.6,-4.6 -4.6,0 -8.5,1.5 -11.6,4.6 -3.1,3.1 -4.6,6.8 -4.6,11.2 0,4.4 1.5,8.2 4.6,11.2 3.1,3.1 6.9,4.6 11.6,4.6 m -7,-23.1 c 1.8,-1.9 4.2,-2.8 7,-2.8 2.8,0 5.1,0.9 7,2.8 1.8,1.9 2.7,4.3 2.7,7.3 0,3 -0.9,5.4 -2.7,7.3 -1.8,1.9 -4.2,2.8 -7,2.8 -2.8,0 -5.1,-0.9 -7,-2.8 -1.8,-1.9 -2.7,-4.3 -2.7,-7.3 0,-3 0.9,-5.4 2.7,-7.3"
       id="path12" /><path
       class="st0"
       d="m 215,330 c 0,3.2 1,5.8 2.9,7.7 1.9,1.9 4.3,2.9 7.1,2.9 2.8,0 5.3,-1 7.5,-3.1 l -2.7,-4.6 c -1.3,1.3 -2.6,2 -4,2 -1.4,0 -2.5,-0.4 -3.2,-1.3 -0.8,-0.9 -1.2,-2 -1.2,-3.5 v -15.6 h 8.1 v -5.2 h -8.1 v -9.7 H 215 v 9.7 h -3.9 v 5.2 h 3.9 z"
       id="path13" /><path
       class="st0"
       d="m 259.2,311.7 c -2.3,-1.8 -5.3,-2.7 -8.9,-2.7 -4.7,0 -9,1.5 -12.7,4.5 l 2.9,4 c 3.1,-2.1 6,-3.1 8.9,-3.1 4.5,0 6.8,2 6.8,6.1 v 1.2 h -8.4 c -3.8,0 -6.8,0.8 -9.1,2.3 -2.2,1.5 -3.4,3.8 -3.4,6.8 0,3 1,5.4 3.1,7.3 2.1,1.8 4.7,2.7 7.9,2.7 4.3,0 7.7,-1.5 10.2,-4.6 v 4.1 h 5.9 v -19.8 c 0.2,-4.1 -0.9,-7 -3.2,-8.8 m -3.1,17 c 0,2 -0.8,3.5 -2.3,4.7 -1.5,1.2 -3.3,1.7 -5.4,1.7 -2.1,0 -3.7,-0.4 -4.8,-1.2 -1.2,-0.8 -1.7,-1.9 -1.7,-3.4 0,-2.9 2.3,-4.4 7,-4.4 h 7.3 v 2.6 z"
       id="path14" /><rect
       x="271.60001"
       y="297.29999"
       class="st0"
       width="6.5"
       height="42.900002"
       id="rect14" /><path
       class="st0"
       d="m 295.2,328.3 h 7.2 c 5.9,0 10.3,-1.1 13.2,-3.4 2.9,-2.3 4.3,-5.9 4.3,-10.8 0,-4.9 -1.4,-8.5 -4.2,-10.9 -2.8,-2.3 -7.3,-3.5 -13.4,-3.5 h -13.9 v 40.4 h 6.8 z m 0,-22.4 h 6.9 c 3.7,0 6.4,0.6 8.1,1.7 1.7,1.2 2.6,3.1 2.6,5.9 0,2.8 -0.7,4.9 -2.1,6.4 -1.4,1.4 -3.9,2.2 -7.7,2.2 h -7.9 v -16.2 z"
       id="path15" /><rect
       x="327"
       y="309.39999"
       class="st0"
       width="6.5"
       height="30.700001"
       id="rect15" /><rect
       x="342.79999"
       y="297.29999"
       class="st0"
       width="6.5"
       height="42.900002"
       id="rect16" /><rect
       x="358.70001"
       y="297.29999"
       class="st0"
       width="6.5"
       height="42.900002"
       id="rect17" /><polygon
       class="st0"
       points="458.8,309.4 452.1,309.4 444.4,332.6 436.8,309.4 430.1,309.4 422.5,332.6 414.9,309.4 408.1,309.4 418.8,340.2 426.2,340.2 433.5,319.1 440.7,340.2 448.1,340.2 "
       id="polygon17" /><path
       class="st0"
       d="m 495.3,329 c -1.8,1.7 -3.6,3 -5.3,3.8 -1.7,0.8 -3.7,1.2 -6.1,1.2 -3.8,0 -7,-1.4 -9.8,-4.1 -2.8,-2.8 -4.1,-6.2 -4.1,-10.3 0,-4.1 1.4,-7.5 4.2,-10.1 2.8,-2.6 6.2,-4 10.3,-4 2.3,0 4.3,0.4 6,1.1 1.7,0.7 3.5,2 5.5,3.9 l 4.3,-4.7 c -4.2,-4.6 -9.4,-6.9 -15.7,-6.9 -6.3,0 -11.4,2 -15.5,6 -4.1,4 -6.2,9 -6.2,15 0,6 2,11 6,14.9 4,3.9 9.1,5.9 15.2,5.9 6.1,0 11.3,-2.4 15.6,-7.1 z"
       id="path17" /><path
       class="st0"
       d="m 513.5,323.5 c 0,-2.9 0.8,-5 2.5,-6.5 1.7,-1.5 3.6,-2.2 5.8,-2.2 4.7,0 7.1,2.8 7.1,8.5 v 16.9 h 6.5 v -18.8 c 0,-4 -1.1,-7.1 -3.2,-9.2 -2.1,-2.1 -4.9,-3.2 -8.4,-3.2 -2.2,0 -4.2,0.5 -6,1.6 -1.9,1.1 -3.3,2.6 -4.2,4.4 V 297.3 H 507 v 42.8 h 6.5 z"
       id="path18" /><path
       class="st0"
       d="m 545.2,337.9 c 2.1,1.8 4.7,2.7 7.9,2.7 4.3,0 7.7,-1.5 10.2,-4.6 v 4.1 h 5.9 v -19.8 c 0,-3.9 -1.1,-6.8 -3.4,-8.6 -2.3,-1.8 -5.3,-2.7 -8.9,-2.7 -4.7,0 -9,1.5 -12.7,4.4 l 2.9,4 c 3.1,-2.1 6,-3.1 8.9,-3.1 4.5,0 6.8,2 6.8,6.1 v 1.2 h -8.4 c -3.8,0 -6.8,0.8 -9.1,2.3 -2.2,1.5 -3.4,3.8 -3.4,6.8 0.2,3 1.2,5.4 3.3,7.2 m 10.3,-11.8 h 7.3 v 2.6 c 0,2 -0.8,3.5 -2.3,4.7 -1.5,1.2 -3.3,1.7 -5.4,1.7 -2.1,0 -3.7,-0.4 -4.8,-1.2 -1.2,-0.8 -1.7,-1.9 -1.7,-3.4 -0.1,-2.9 2.3,-4.4 6.9,-4.4"
       id="path19" /><path
       class="st0"
       d="m 601.3,297.3 v 16.9 c -2.5,-3.5 -5.8,-5.2 -9.9,-5.2 -4.1,0 -7.6,1.4 -10.6,4.3 -3,2.9 -4.4,6.7 -4.4,11.4 0,4.8 1.4,8.6 4.3,11.6 2.9,2.9 6.3,4.4 10.2,4.4 4.6,0 8.1,-1.7 10.5,-5.1 v 4.6 h 6.5 v -42.9 z m -2.5,34.8 c -1.8,1.9 -3.9,2.8 -6.5,2.8 -2.6,0 -4.8,-0.9 -6.6,-2.8 -1.9,-1.8 -2.8,-4.2 -2.8,-7.2 0,-2.9 0.9,-5.4 2.8,-7.4 1.8,-2 4.1,-2.9 6.6,-2.9 2.6,0 4.8,1 6.5,2.9 1.8,2 2.7,4.4 2.7,7.3 -0.1,3 -1,5.4 -2.7,7.3"
       id="path20" /><path
       class="st0"
       d="m 388.3,340.9 c 8.9,0 16.3,-6.7 16.3,-16.5 0,-9.9 -7.4,-16.5 -16.3,-16.5 -8.9,0 -16.3,6.6 -16.3,16.5 0,9.9 7.4,16.5 16.3,16.5 m -9.1,-19.4 c -0.2,-0.8 -0.6,-1.5 -0.7,-1.7 -0.1,-0.2 -0.2,-0.4 -0.3,-0.6 0,-0.1 -0.1,-0.1 -0.1,-0.2 0.1,0 0.3,0 0.4,0.1 0.9,0.1 2.2,0.4 4,-0.2 0.5,-0.2 1,-0.3 1.6,-0.4 2.8,-0.6 5.8,-0.6 8.5,0 0.6,0.1 1.1,0.3 1.6,0.4 1.8,0.6 3.1,0.4 4,0.2 0.1,0 0.3,-0.1 0.5,-0.1 0,0.1 -0.1,0.1 -0.1,0.2 -0.1,0.2 -0.2,0.3 -0.3,0.5 0,0.1 -0.1,0.1 -0.1,0.2 -0.2,0.3 -0.5,0.9 -0.7,1.6 -0.2,0.7 -0.4,1.4 -0.4,2.1 -0.1,1.3 0,2.7 0.4,4 0.2,0.6 0.4,1.2 0.6,1.6 0,0.1 0.1,0.1 0.1,0.2 0.1,0.2 0.2,0.5 0.4,0.7 0,0.1 0.1,0.1 0.1,0.2 -0.1,0 -0.3,-0.1 -0.5,-0.1 -0.9,-0.1 -2.2,-0.3 -4,0.2 -0.5,0.1 -1,0.3 -1.6,0.4 -2.8,0.6 -5.7,0.6 -8.5,0 -0.6,-0.1 -1.1,-0.3 -1.6,-0.4 -0.9,-0.3 -1.7,-0.4 -2.3,-0.4 -0.7,0 -1.2,0.1 -1.6,0.2 -0.1,0 -0.3,0.1 -0.4,0.1 0,0 0,0 0,0 0.1,-0.1 0.2,-0.2 0.2,-0.4 0,0 0,0 0,-0.1 0.2,-0.3 0.4,-0.7 0.5,-1 0.1,-0.1 0.1,-0.3 0.2,-0.4 0.4,-1 0.7,-2.1 0.7,-3.2 0,-1.3 -0.2,-2.5 -0.6,-3.7"
       id="path21" /><path
       class="st0"
       d="m 381.2,327.8 c -0.1,0.3 -0.3,0.5 -0.4,0.8 0,0 0,0 0,0.1 -0.1,0.1 -0.1,0.2 -0.2,0.3 0,0 0,0 0,0 0.1,0 0.2,0 0.3,-0.1 0.3,0 0.7,-0.1 1.2,-0.1 0.5,0 1.1,0.1 1.8,0.3 0.4,0.1 0.8,0.2 1.2,0.3 2.1,0.4 4.3,0.4 6.4,0 0.4,-0.1 0.8,-0.2 1.2,-0.3 1.4,-0.4 2.3,-0.3 3,-0.2 0.1,0 0.2,0 0.3,0.1 0,0 -0.1,-0.1 -0.1,-0.1 -0.1,-0.1 -0.2,-0.3 -0.3,-0.5 0,0 -0.1,-0.1 -0.1,-0.1 -0.1,-0.3 -0.3,-0.7 -0.5,-1.2 -0.3,-1 -0.4,-2 -0.3,-3 0.1,-0.5 0.2,-1.1 0.3,-1.6 0.1,-0.5 0.4,-1 0.5,-1.2 0,-0.1 0.1,-0.1 0.1,-0.1 0.1,-0.1 0.2,-0.3 0.2,-0.4 0,0 0.1,-0.1 0.1,-0.1 -0.1,0 -0.2,0 -0.3,0.1 -0.6,0.1 -1.6,0.3 -3,-0.2 -0.4,-0.1 -0.8,-0.2 -1.2,-0.3 -2.1,-0.4 -4.3,-0.4 -6.4,0 -0.4,0.1 -0.8,0.2 -1.2,0.3 -1.4,0.4 -2.3,0.3 -3,0.2 -0.1,0 -0.2,0 -0.3,-0.1 0,0.1 0.1,0.1 0.1,0.1 0.1,0.1 0.2,0.3 0.2,0.4 0.1,0.1 0.4,0.6 0.6,1.3 0.3,0.9 0.4,1.8 0.4,2.7 0,0.8 -0.2,1.7 -0.5,2.4 0,0 -0.1,0.1 -0.1,0.2"
       id="path22" /><path
       class="st0"
       d="m 330.2,298.6 c -0.9,0 -1.7,0.3 -2.3,1 -0.6,0.6 -1,1.4 -1,2.3 0,0.9 0.3,1.7 1,2.3 0.6,0.6 1.4,1 2.3,1 0.9,0 1.7,-0.3 2.3,-1 0.6,-0.6 1,-1.4 1,-2.3 0,-0.9 -0.3,-1.7 -1,-2.3 -0.6,-0.7 -1.4,-1 -2.3,-1"
       id="path23" /></g></g>
</svg>
